<mxfile host="app.diagrams.net" modified="2021-09-25T12:34:25.640Z" agent="5.0 (Windows)" etag="6ghzbKnSQ4RW02Sl0wWG" version="14.8.4" type="github">
  <diagram id="chiKHotdrLIIGSNP8Xuh" name="Page-1">
    <mxGraphModel dx="1422" dy="780" grid="1" gridSize="10" guides="1" tooltips="1" connect="1" arrows="1" fold="1" page="1" pageScale="1" pageWidth="827" pageHeight="1169" math="0" shadow="0">
      <root>
        <mxCell id="0" />
        <mxCell id="1" parent="0" />
        <mxCell id="QKq8agAtaDeF7nTPc8KH-1" value="Controller" style="swimlane;" parent="1" vertex="1">
          <mxGeometry x="100" y="260" width="360" height="320" as="geometry" />
        </mxCell>
        <mxCell id="QKq8agAtaDeF7nTPc8KH-24" value="Model" style="swimlane;" parent="QKq8agAtaDeF7nTPc8KH-1" vertex="1">
          <mxGeometry x="180" y="36" width="160" height="270" as="geometry" />
        </mxCell>
        <mxCell id="QKq8agAtaDeF7nTPc8KH-35" value="Dynamic Model" style="swimlane;fontStyle=0;childLayout=stackLayout;horizontal=1;startSize=26;horizontalStack=0;resizeParent=1;resizeParentMax=0;resizeLast=0;collapsible=1;marginBottom=0;" parent="QKq8agAtaDeF7nTPc8KH-24" vertex="1">
          <mxGeometry x="20" y="40" width="120" height="130" as="geometry" />
        </mxCell>
        <mxCell id="QKq8agAtaDeF7nTPc8KH-36" value="Tasklist" style="text;strokeColor=none;fillColor=none;align=left;verticalAlign=top;spacingLeft=4;spacingRight=4;overflow=hidden;rotatable=0;points=[[0,0.5],[1,0.5]];portConstraint=eastwest;" parent="QKq8agAtaDeF7nTPc8KH-35" vertex="1">
          <mxGeometry y="26" width="120" height="26" as="geometry" />
        </mxCell>
        <mxCell id="QKq8agAtaDeF7nTPc8KH-37" value="Players" style="text;strokeColor=none;fillColor=none;align=left;verticalAlign=top;spacingLeft=4;spacingRight=4;overflow=hidden;rotatable=0;points=[[0,0.5],[1,0.5]];portConstraint=eastwest;" parent="QKq8agAtaDeF7nTPc8KH-35" vertex="1">
          <mxGeometry y="52" width="120" height="26" as="geometry" />
        </mxCell>
        <mxCell id="QKq8agAtaDeF7nTPc8KH-38" value="Timings" style="text;strokeColor=none;fillColor=none;align=left;verticalAlign=top;spacingLeft=4;spacingRight=4;overflow=hidden;rotatable=0;points=[[0,0.5],[1,0.5]];portConstraint=eastwest;" parent="QKq8agAtaDeF7nTPc8KH-35" vertex="1">
          <mxGeometry y="78" width="120" height="26" as="geometry" />
        </mxCell>
        <mxCell id="QKq8agAtaDeF7nTPc8KH-40" value="Traffic Simulation" style="text;strokeColor=none;fillColor=none;align=left;verticalAlign=top;spacingLeft=4;spacingRight=4;overflow=hidden;rotatable=0;points=[[0,0.5],[1,0.5]];portConstraint=eastwest;" parent="QKq8agAtaDeF7nTPc8KH-35" vertex="1">
          <mxGeometry y="104" width="120" height="26" as="geometry" />
        </mxCell>
        <mxCell id="QKq8agAtaDeF7nTPc8KH-61" value="Static Model" style="swimlane;fontStyle=0;childLayout=stackLayout;horizontal=1;startSize=26;horizontalStack=0;resizeParent=1;resizeParentMax=0;resizeLast=0;collapsible=1;marginBottom=0;" parent="QKq8agAtaDeF7nTPc8KH-24" vertex="1">
          <mxGeometry x="20" y="184" width="120" height="78" as="geometry" />
        </mxCell>
        <mxCell id="QKq8agAtaDeF7nTPc8KH-62" value="Road Graph" style="text;strokeColor=none;fillColor=none;align=left;verticalAlign=top;spacingLeft=4;spacingRight=4;overflow=hidden;rotatable=0;points=[[0,0.5],[1,0.5]];portConstraint=eastwest;" parent="QKq8agAtaDeF7nTPc8KH-61" vertex="1">
          <mxGeometry y="26" width="120" height="26" as="geometry" />
        </mxCell>
        <mxCell id="QKq8agAtaDeF7nTPc8KH-63" value="Obstacle Location" style="text;strokeColor=none;fillColor=none;align=left;verticalAlign=top;spacingLeft=4;spacingRight=4;overflow=hidden;rotatable=0;points=[[0,0.5],[1,0.5]];portConstraint=eastwest;" parent="QKq8agAtaDeF7nTPc8KH-61" vertex="1">
          <mxGeometry y="52" width="120" height="26" as="geometry" />
        </mxCell>
        <mxCell id="QKq8agAtaDeF7nTPc8KH-20" value="Network" style="swimlane;fontStyle=0;childLayout=stackLayout;horizontal=1;startSize=26;horizontalStack=0;resizeParent=1;resizeParentMax=0;resizeLast=0;collapsible=1;marginBottom=0;" parent="QKq8agAtaDeF7nTPc8KH-1" vertex="1">
          <mxGeometry x="20" y="228" width="120" height="78" as="geometry" />
        </mxCell>
        <mxCell id="QKq8agAtaDeF7nTPc8KH-21" value="Serialization" style="text;strokeColor=none;fillColor=none;align=left;verticalAlign=top;spacingLeft=4;spacingRight=4;overflow=hidden;rotatable=0;points=[[0,0.5],[1,0.5]];portConstraint=eastwest;" parent="QKq8agAtaDeF7nTPc8KH-20" vertex="1">
          <mxGeometry y="26" width="120" height="26" as="geometry" />
        </mxCell>
        <mxCell id="QKq8agAtaDeF7nTPc8KH-22" value="Syncronization" style="text;strokeColor=none;fillColor=none;align=left;verticalAlign=top;spacingLeft=4;spacingRight=4;overflow=hidden;rotatable=0;points=[[0,0.5],[1,0.5]];portConstraint=eastwest;" parent="QKq8agAtaDeF7nTPc8KH-20" vertex="1">
          <mxGeometry y="52" width="120" height="26" as="geometry" />
        </mxCell>
        <mxCell id="QKq8agAtaDeF7nTPc8KH-9" value="Courier View" style="swimlane;fontStyle=0;childLayout=stackLayout;horizontal=1;startSize=26;horizontalStack=0;resizeParent=1;resizeParentMax=0;resizeLast=0;collapsible=1;marginBottom=0;" parent="1" vertex="1">
          <mxGeometry x="560" y="280" width="120" height="130" as="geometry" />
        </mxCell>
        <mxCell id="QKq8agAtaDeF7nTPc8KH-18" value="Player Links&#xa;" style="text;strokeColor=none;fillColor=none;align=left;verticalAlign=top;spacingLeft=4;spacingRight=4;overflow=hidden;rotatable=0;points=[[0,0.5],[1,0.5]];portConstraint=eastwest;" parent="QKq8agAtaDeF7nTPc8KH-9" vertex="1">
          <mxGeometry y="26" width="120" height="26" as="geometry" />
        </mxCell>
        <mxCell id="QKq8agAtaDeF7nTPc8KH-39" value="Traffic" style="text;strokeColor=none;fillColor=none;align=left;verticalAlign=top;spacingLeft=4;spacingRight=4;overflow=hidden;rotatable=0;points=[[0,0.5],[1,0.5]];portConstraint=eastwest;" parent="QKq8agAtaDeF7nTPc8KH-9" vertex="1">
          <mxGeometry y="52" width="120" height="26" as="geometry" />
        </mxCell>
        <mxCell id="QKq8agAtaDeF7nTPc8KH-41" value="Obstacles" style="text;strokeColor=none;fillColor=none;align=left;verticalAlign=top;spacingLeft=4;spacingRight=4;overflow=hidden;rotatable=0;points=[[0,0.5],[1,0.5]];portConstraint=eastwest;" parent="QKq8agAtaDeF7nTPc8KH-9" vertex="1">
          <mxGeometry y="78" width="120" height="26" as="geometry" />
        </mxCell>
        <mxCell id="QKq8agAtaDeF7nTPc8KH-42" value="PlayerController" style="text;strokeColor=none;fillColor=none;align=left;verticalAlign=top;spacingLeft=4;spacingRight=4;overflow=hidden;rotatable=0;points=[[0,0.5],[1,0.5]];portConstraint=eastwest;" parent="QKq8agAtaDeF7nTPc8KH-9" vertex="1">
          <mxGeometry y="104" width="120" height="26" as="geometry" />
        </mxCell>
        <mxCell id="QKq8agAtaDeF7nTPc8KH-43" value="Master View" style="swimlane;fontStyle=0;childLayout=stackLayout;horizontal=1;startSize=26;horizontalStack=0;resizeParent=1;resizeParentMax=0;resizeLast=0;collapsible=1;marginBottom=0;" parent="1" vertex="1">
          <mxGeometry x="560" y="450" width="120" height="104" as="geometry" />
        </mxCell>
        <mxCell id="QKq8agAtaDeF7nTPc8KH-44" value="Player Links&#xa;" style="text;strokeColor=none;fillColor=none;align=left;verticalAlign=top;spacingLeft=4;spacingRight=4;overflow=hidden;rotatable=0;points=[[0,0.5],[1,0.5]];portConstraint=eastwest;" parent="QKq8agAtaDeF7nTPc8KH-43" vertex="1">
          <mxGeometry y="26" width="120" height="26" as="geometry" />
        </mxCell>
        <mxCell id="QKq8agAtaDeF7nTPc8KH-45" value="Traffic" style="text;strokeColor=none;fillColor=none;align=left;verticalAlign=top;spacingLeft=4;spacingRight=4;overflow=hidden;rotatable=0;points=[[0,0.5],[1,0.5]];portConstraint=eastwest;" parent="QKq8agAtaDeF7nTPc8KH-43" vertex="1">
          <mxGeometry y="52" width="120" height="26" as="geometry" />
        </mxCell>
        <mxCell id="QKq8agAtaDeF7nTPc8KH-46" value="Obstacles" style="text;strokeColor=none;fillColor=none;align=left;verticalAlign=top;spacingLeft=4;spacingRight=4;overflow=hidden;rotatable=0;points=[[0,0.5],[1,0.5]];portConstraint=eastwest;" parent="QKq8agAtaDeF7nTPc8KH-43" vertex="1">
          <mxGeometry y="78" width="120" height="26" as="geometry" />
        </mxCell>
        <mxCell id="QKq8agAtaDeF7nTPc8KH-65" value="Refresh" style="endArrow=classic;html=1;entryX=-0.025;entryY=0.808;entryDx=0;entryDy=0;entryPerimeter=0;horizontal=1;verticalAlign=top;" parent="1" target="QKq8agAtaDeF7nTPc8KH-41" edge="1">
          <mxGeometry width="50" height="50" relative="1" as="geometry">
            <mxPoint x="460" y="380" as="sourcePoint" />
            <mxPoint x="440" y="370" as="targetPoint" />
          </mxGeometry>
        </mxCell>
        <mxCell id="QKq8agAtaDeF7nTPc8KH-66" value="" style="endArrow=classic;html=1;entryX=0.092;entryY=0;entryDx=0;entryDy=0;entryPerimeter=0;" parent="1" target="QKq8agAtaDeF7nTPc8KH-43" edge="1">
          <mxGeometry width="50" height="50" relative="1" as="geometry">
            <mxPoint x="460" y="380" as="sourcePoint" />
            <mxPoint x="550" y="399.99800000000005" as="targetPoint" />
            <Array as="points">
              <mxPoint x="530" y="380" />
            </Array>
          </mxGeometry>
        </mxCell>
        <mxCell id="QKq8agAtaDeF7nTPc8KH-69" value="Gather" style="endArrow=classic;html=1;horizontal=1;verticalAlign=top;exitX=-0.017;exitY=0.923;exitDx=0;exitDy=0;exitPerimeter=0;" parent="1" source="QKq8agAtaDeF7nTPc8KH-18" edge="1">
          <mxGeometry width="50" height="50" relative="1" as="geometry">
            <mxPoint x="470" y="390" as="sourcePoint" />
            <mxPoint x="460" y="330" as="targetPoint" />
          </mxGeometry>
        </mxCell>
      </root>
    </mxGraphModel>
  </diagram>
</mxfile>
